<svg width="1024" height="1024" viewBox="0 0 1024 1024" fill="none" xmlns="http://www.w3.org/2000/svg">
<g clip-path="url(#clip0_923_259)">
<circle cx="512" cy="512" r="512" fill="#111010"/>
<path d="M189.95 461.5H237.8C248.9 461.5 257.6 464.65 263.9 470.95C270.2 477.15 273.35 485.5 273.35 496C273.35 506.4 270.2 514.6 263.9 520.6C257.7 526.5 249 529.45 237.8 529.45H212.6V565H189.95V461.5ZM234.2 509.95C240 509.95 244.2 508.75 246.8 506.35C249.5 503.85 250.85 500.2 250.85 495.4C250.85 490.6 249.5 487 246.8 484.6C244.1 482.2 239.9 481 234.2 481H212.6V509.95H234.2ZM336.501 541.9H298.251L290.901 565H266.301L302.301 461.5H332.001L368.151 565H343.701L336.501 541.9ZM330.801 523.75L317.751 481.9H317.151L303.951 523.75H330.801ZM464.206 507.1V565H445.906L445.156 551.95C442.056 556.55 437.706 560.15 432.106 562.75C426.506 565.25 420.456 566.5 413.956 566.5C404.556 566.5 396.406 564.1 389.506 559.3C382.606 554.5 377.356 548.05 373.756 539.95C370.256 531.75 368.506 522.7 368.506 512.8C368.506 502.9 370.456 493.95 374.356 485.95C378.256 477.95 384.006 471.6 391.606 466.9C399.206 462.2 408.356 459.85 419.056 459.85C430.056 459.85 439.356 462.6 446.956 468.1C454.656 473.5 459.906 480.55 462.706 489.25L443.506 496.75C441.506 490.95 438.356 486.55 434.056 483.55C429.856 480.45 424.656 478.9 418.456 478.9C409.156 478.9 402.256 482.1 397.756 488.5C393.256 494.9 391.006 503.05 391.006 512.95C391.006 522.95 393.256 531.1 397.756 537.4C402.256 543.6 409.156 546.7 418.456 546.7C423.556 546.7 427.956 545.7 431.656 543.7C435.456 541.7 438.306 539.1 440.206 535.9C442.106 532.6 443.056 529.05 443.056 525.25H420.856V507.1H464.206ZM543.044 541.9H504.794L497.444 565H472.844L508.844 461.5H538.544L574.694 565H550.244L543.044 541.9ZM537.344 523.75L524.294 481.9H523.694L510.494 523.75H537.344Z" fill="white"/>
<path d="M585.458 461.65H618.458L644.258 538.3L670.058 461.65H703.358V565H680.708V488.35H679.808L654.458 565H634.058L608.858 488.35H607.958V565H585.458V461.65ZM725.35 461.5H795.55V480.7H748.15V503.5H791.05V522.7H748.15V545.65H795.55V565H725.35V461.5Z" fill="#3DA2FD"/>
</g>
<defs>
<clipPath id="clip0_923_259">
<rect width="1024" height="1024" fill="white"/>
</clipPath>
</defs>
</svg>
